<svg width="62" height="62" viewBox="0 0 62 62" fill="none" xmlns="http://www.w3.org/2000/svg">
<path d="M9.19542 1.92851C9.80737 0.369089 11.5722 -0.400766 13.1372 0.208992L59.6487 18.3305C61.2137 18.9402 61.9863 20.6987 61.3744 22.2581L52.3887 45.1561C51.7767 46.7155 50.0119 47.4854 48.4469 46.8756L1.93545 28.7542C0.370416 28.1444 -0.402208 26.3859 0.209744 24.8265L9.19542 1.92851Z" fill="#B5D2FF"/>
<path d="M6.62495 21.9553C6.62889 20.2809 7.99433 18.9268 9.67475 18.9307L58.9573 19.0457C60.6377 19.0496 61.9968 20.4102 61.9929 22.0846L61.9351 46.6707C61.9311 48.3451 60.5657 49.6993 58.8853 49.6954L9.6027 49.5804C7.92228 49.5764 6.56322 48.2159 6.56716 46.5415L6.62495 21.9553Z" fill="white"/>
<path fill-rule="evenodd" clip-rule="evenodd" d="M58.9526 21.0669L9.67 20.9519C9.10986 20.9506 8.65471 21.4019 8.6534 21.9601L8.5956 46.5462C8.59429 47.1044 9.04731 47.5579 9.60745 47.5592L58.89 47.6742C59.4502 47.6755 59.9053 47.2241 59.9066 46.666L59.9644 22.0798C59.9657 21.5217 59.5127 21.0682 58.9526 21.0669ZM9.67475 18.9307C7.99433 18.9268 6.62889 20.2809 6.62495 21.9553L6.56716 46.5415C6.56322 48.2159 7.92228 49.5764 9.6027 49.5804L58.8853 49.6954C60.5657 49.6993 61.9311 48.3451 61.9351 46.6707L61.9929 22.0846C61.9968 20.4102 60.6377 19.0496 58.9573 19.0457L9.67475 18.9307Z" fill="#4B63A2"/>
<path d="M12.457 37.5249C12.457 36.9842 12.8969 36.5459 13.4396 36.5459H20.3173C20.8599 36.5459 21.2998 36.9842 21.2998 37.5249C21.2998 38.0656 20.8599 38.5039 20.3173 38.5039H13.4396C12.8969 38.5039 12.457 38.0656 12.457 37.5249Z" fill="#4B63A2"/>
<path d="M12.457 42.4199C12.457 41.8792 12.8969 41.4409 13.4396 41.4409H27.195C27.7376 41.4409 28.1775 41.8792 28.1775 42.4199C28.1775 42.9606 27.7376 43.3989 27.195 43.3989H13.4396C12.8969 43.3989 12.457 42.9606 12.457 42.4199Z" fill="#4B63A2"/>
<path d="M24.2463 37.5249C24.2463 36.9842 24.6862 36.5459 25.2289 36.5459H33.0891C33.6318 36.5459 34.0716 36.9842 34.0716 37.5249C34.0716 38.0656 33.6318 38.5039 33.0891 38.5039H25.2289C24.6862 38.5039 24.2463 38.0656 24.2463 37.5249Z" fill="#4B63A2"/>
<path d="M34.0703 37.5249C34.0703 36.9842 34.5102 36.5459 35.0528 36.5459H42.9131C43.4557 36.5459 43.8956 36.9842 43.8956 37.5249C43.8956 38.0656 43.4557 38.5039 42.9131 38.5039H35.0528C34.5102 38.5039 34.0703 38.0656 34.0703 37.5249Z" fill="#4B63A2"/>
<path d="M46.8445 37.5249C46.8445 36.9842 47.2844 36.5459 47.827 36.5459H54.7047C55.2474 36.5459 55.6873 36.9842 55.6873 37.5249C55.6873 38.0656 55.2474 38.5039 54.7047 38.5039H47.827C47.2844 38.5039 46.8445 38.0656 46.8445 37.5249Z" fill="#4B63A2"/>
<path d="M49.9576 27.816C49.9576 30.0238 48.1614 31.8136 45.9456 31.8136C43.7298 31.8136 41.9336 30.0238 41.9336 27.816C41.9336 25.6082 43.7298 23.8184 45.9456 23.8184C48.1614 23.8184 49.9576 25.6082 49.9576 27.816Z" fill="#E4C4F0"/>
<path d="M55.6876 27.8162C55.6876 30.024 53.8913 31.8138 51.6756 31.8138C49.4598 31.8138 47.6636 30.024 47.6636 27.8162C47.6636 25.6084 49.4598 23.8186 51.6756 23.8186C53.8913 23.8186 55.6876 25.6084 55.6876 27.8162Z" fill="#FEEEB7"/>
<path fill-rule="evenodd" clip-rule="evenodd" d="M48.7866 30.7954C49.6074 30.0634 50.124 28.9997 50.124 27.8157C50.124 26.6317 49.6074 25.5679 48.7866 24.8359C47.9658 25.5679 47.4492 26.6317 47.4492 27.8157C47.4492 28.9997 47.9658 30.0634 48.7866 30.7954Z" fill="#E1EFFF"/>
<path d="M47.3359 42.4505C45.8369 42.2301 42.068 43.2208 38.9844 44.8078V53.7215C39.4127 56.1461 41.6826 59.8841 47.3359 62.0001C52.9892 59.8841 55.2591 56.1461 55.6874 53.7215V44.8078C52.6038 43.2208 48.8349 42.2301 47.3359 42.4505Z" fill="#D3EE69"/>
<path fill-rule="evenodd" clip-rule="evenodd" d="M51.3305 48.4658C51.7779 48.7718 51.8917 49.3812 51.5847 49.827L47.539 55.7011C47.3782 55.9344 47.124 56.087 46.8419 56.1196C46.5598 56.1522 46.2773 56.0615 46.0673 55.8709L43.2353 53.301C42.8341 52.937 42.805 52.3178 43.1704 51.918C43.5358 51.5182 44.1572 51.4893 44.5584 51.8534L46.5568 53.6668L49.9645 48.7191C50.2715 48.2733 50.8831 48.1599 51.3305 48.4658Z" fill="#4B63A2"/>
</svg>
