<svg width="62" height="62" viewBox="0 0 62 62" fill="none" xmlns="http://www.w3.org/2000/svg">
<path d="M36.3347 56.0911C32.3347 61.2911 17.3347 58.2578 10.3347 56.0911C10.3347 56.0911 10.3359 50.0913 8.33471 47.0913C6.33355 44.0913 13.8344 41.0913 16.8347 41.0913C19.8351 41.0913 25.0014 36.0912 25.8347 33.0911H31.8347C31.3347 34.4245 29.9347 38.1913 28.3347 42.5911C30.7347 48.191 34.668 45.9245 36.3347 44.0913L43.3347 33.0911C44.0014 32.7578 46.3347 32.2911 50.3347 33.0911C56.3347 34.6911 51.168 40.0911 47.8347 42.5911C45.5014 46.2578 39.9347 54.0911 36.3347 56.0911Z" fill="white"/>
<path fill-rule="evenodd" clip-rule="evenodd" d="M31.4311 38.4293C31.0178 39.5536 30.7125 40.461 30.6167 41.0361C30.3588 42.5841 31.2974 43.6601 31.8669 44.0566C34.1214 44.646 35.4542 43.6193 37.0811 42.366C37.2719 42.219 37.4667 42.0689 37.6676 41.9179L43.5775 36.9144C44.21 36.387 44.7575 35.8918 45.2679 35.4301C46.8289 34.0181 48.0432 32.9197 50.2842 32.1724L50.4385 32.1209L50.6013 32.1209C51.7328 32.1209 52.6905 32.3371 53.3883 32.8498C54.1342 33.398 54.4505 34.1862 54.4505 35C54.4505 35.7702 54.1731 36.5521 53.7854 37.2553C53.3913 37.97 52.8463 38.6708 52.2212 39.2963C50.9581 40.5601 49.8469 42.0432 48.4914 43.8522C48.2024 44.2379 47.9024 44.6384 47.5873 45.0547C45.8124 47.4006 43.6276 50.1562 40.4149 53.3515C40.2287 53.5367 40.0319 53.7429 39.8225 53.9623C38.5167 55.3306 36.7221 57.211 33.9612 57.6997C32.5724 58.1156 29.4593 58.6809 25.8251 58.9C22.1492 59.1216 17.8248 58.9968 14.1226 57.9455C13.8603 57.9003 13.6246 57.848 13.4007 57.7983C12.8005 57.6652 12.2846 57.5507 11.5653 57.6417C10.6409 57.7587 9.34339 58.2653 7.51461 60.0086L6.13281 58.5663C8.16234 56.6317 9.83648 55.8496 11.3136 55.6626C12.4155 55.5232 13.4103 55.7472 14.0642 55.8945C14.2376 55.9336 14.387 55.9672 14.5081 55.9873L14.5651 55.9967L14.6208 56.0127C18.0212 56.9883 22.1113 57.1252 25.7045 56.9087C29.3012 56.6919 32.2833 56.1288 33.4344 55.7743L33.4979 55.7547L33.5633 55.7437C35.6529 55.3926 36.9637 54.0375 38.3029 52.653C38.5339 52.4142 38.7658 52.1744 39.0027 51.9388C42.1232 48.8352 44.2449 46.1607 45.991 43.8529C46.2887 43.4595 46.5775 43.0738 46.86 42.6964C48.2178 40.883 49.4318 39.2616 50.8048 37.8878C51.3194 37.3729 51.7432 36.8194 52.033 36.2939C52.329 35.757 52.4505 35.313 52.4505 35C52.4505 34.7304 52.3679 34.5779 52.2021 34.4561C52.001 34.3083 51.5763 34.1377 50.7619 34.1178C49.053 34.7147 48.2175 35.4689 46.8181 36.7322C46.278 37.2198 45.6539 37.7832 44.8632 38.4426C44.8622 38.4434 44.8612 38.4442 44.8603 38.445L38.9171 43.4767L38.8935 43.4944C38.7145 43.6287 38.5289 43.7741 38.3358 43.9256C36.7092 45.2006 34.5431 46.8986 31.1782 45.9367L31.0512 45.9004L30.9381 45.8324C29.9679 45.25 28.1884 43.4428 28.6437 40.7091C28.7759 39.9158 29.1544 38.8276 29.5533 37.7425C29.6709 37.4227 29.7918 37.0991 29.9131 36.7746C30.22 35.9532 30.529 35.1265 30.79 34.3432C31.1595 33.2344 31.3774 32.3666 31.3872 31.8352C29.9999 31.8359 29.3485 31.8623 28.7528 32.1759C28.1485 32.4942 27.4691 33.1925 26.3858 34.999C23.5314 39.7589 20.6072 41.2848 19.0066 41.8186C18.7365 41.9087 18.4104 41.9609 18.1106 42.0004C17.8702 42.0321 17.5939 42.0619 17.3065 42.0927C17.221 42.1019 17.1345 42.1112 17.0478 42.1207C16.2714 42.2056 15.3836 42.3144 14.4789 42.5276C12.6524 42.9579 10.9336 43.7712 9.98912 45.4631L8.24176 44.4925C9.58897 42.0792 11.9734 41.068 14.0191 40.586C15.0505 40.343 16.041 40.2238 16.8299 40.1376C16.9276 40.127 17.0211 40.1169 17.1106 40.1073C17.3917 40.077 17.6342 40.051 17.8483 40.0227C18.1426 39.9839 18.3006 39.9505 18.3724 39.9266C19.5071 39.5482 22.0532 38.3377 24.6694 33.9749C25.7745 32.1322 26.6909 31.0058 27.8191 30.4117C28.9073 29.8387 30.0692 29.8394 31.3191 29.8401C31.3402 29.8402 31.3613 29.8402 31.3824 29.8402C31.9112 29.7729 32.5112 29.8763 32.9405 30.378C33.3286 30.8314 33.3916 31.4125 33.3873 31.8385C33.3783 32.7197 33.0554 33.8694 32.6879 34.9724C32.4147 35.7921 32.0858 36.6723 31.7743 37.506C31.656 37.8224 31.5403 38.1321 31.4311 38.4293Z" fill="#4B63A2"/>
<path d="M31.4894 0.521141C31.8681 -0.173713 32.868 -0.173714 33.2467 0.52114L36.455 6.4091C36.6018 6.67856 36.8647 6.86567 37.1679 6.91647L43.8939 8.04331C44.6957 8.17764 45.0102 9.15962 44.4349 9.73275L39.7135 14.4366C39.4894 14.6599 39.3846 14.9759 39.431 15.2885L40.3996 21.8098C40.5169 22.5998 39.7022 23.2002 38.9796 22.8562L32.7988 19.9135C32.5264 19.7837 32.2097 19.7837 31.9373 19.9135L25.7565 22.8562C25.0339 23.2002 24.2192 22.5998 24.3365 21.8098L25.3051 15.2885C25.3515 14.9759 25.2467 14.6599 25.0226 14.4366L20.3011 9.73275C19.7259 9.15962 20.0403 8.17764 20.8422 8.04331L27.5682 6.91647C27.8714 6.86567 28.1343 6.67856 28.2811 6.40911L31.4894 0.521141Z" fill="#FEEEB7"/>
<path fill-rule="evenodd" clip-rule="evenodd" d="M32.368 3.08625L30.0383 7.36177C29.5979 8.17014 28.8091 8.73146 27.8994 8.88386L23.0883 9.6899L26.4359 13.0251C27.1084 13.695 27.4228 14.6431 27.2835 15.5808L26.5902 20.2487L31.0758 18.1131C31.8931 17.7239 32.843 17.7239 33.6603 18.1131L38.1459 20.2487L37.4526 15.5808C37.3133 14.6431 37.6277 13.695 38.3002 13.0251L41.6478 9.6899L36.8367 8.88386C35.927 8.73146 35.1382 8.17014 34.6977 7.36177L32.368 3.08625ZM33.2467 0.52114C32.868 -0.173714 31.8681 -0.173713 31.4894 0.521141L28.2811 6.40911C28.1343 6.67856 27.8714 6.86567 27.5682 6.91647L20.8422 8.04331C20.0403 8.17764 19.7259 9.15962 20.3011 9.73275L25.0226 14.4366C25.2467 14.6599 25.3515 14.9759 25.3051 15.2885L24.3365 21.8098C24.2192 22.5998 25.0339 23.2002 25.7565 22.8562L31.9373 19.9135C32.2097 19.7837 32.5264 19.7837 32.7988 19.9135L38.9796 22.8562C39.7022 23.2002 40.5169 22.5998 40.3996 21.8098L39.431 15.2885C39.3846 14.9759 39.4894 14.6599 39.7135 14.4366L44.4349 9.73275C45.0102 9.15962 44.6957 8.17764 43.8939 8.04331L37.1679 6.91647C36.8647 6.86567 36.6018 6.67856 36.455 6.4091L33.2467 0.52114Z" fill="#4B63A2"/>
<path d="M8.15723 42.5202L13.2042 58.9258L7.27354 60.7523L2.22656 44.3467L8.15723 42.5202Z" fill="#B5DFD4"/>
<path fill-rule="evenodd" clip-rule="evenodd" d="M0.979492 43.6873L8.82115 41.2722L14.4548 59.585L6.61319 62L0.979492 43.6873ZM3.4772 45.0059L7.93746 59.5043L11.9571 58.2663L7.49688 43.7679L3.4772 45.0059Z" fill="#4B63A2"/>
<path d="M0 29.9258C0 28.4143 1.22841 27.189 2.74373 27.189H59.2563C60.7716 27.189 62 28.4143 62 29.9258C62 31.4373 60.7716 32.6626 59.2563 32.6626H2.74373C1.22841 32.6626 0 31.4373 0 29.9258Z" fill="url(#paint0_linear)"/>
<path fill-rule="evenodd" clip-rule="evenodd" d="M59.2563 29.1839H2.74373C2.33298 29.1839 2 29.5161 2 29.9258C2 30.3355 2.33298 30.6676 2.74373 30.6676H59.2563C59.667 30.6676 60 30.3355 60 29.9258C60 29.5161 59.667 29.1839 59.2563 29.1839ZM2.74373 27.189C1.22841 27.189 0 28.4143 0 29.9258C0 31.4373 1.22841 32.6626 2.74373 32.6626H59.2563C60.7716 32.6626 62 31.4373 62 29.9258C62 28.4143 60.7716 27.189 59.2563 27.189H2.74373Z" fill="#4B63A2"/>
<path fill-rule="evenodd" clip-rule="evenodd" d="M42.9636 33.4249C43.9327 32.3469 44.9739 31.3987 46.0538 30.8584L46.9504 32.6416C46.2068 33.0136 45.366 33.7407 44.4526 34.7567C43.5508 35.76 42.6359 36.9789 41.7309 38.262C41.1707 39.0562 40.6297 39.8525 40.1003 40.6317C39.7678 41.1211 39.4399 41.6037 39.1148 42.0748C38.2899 43.2699 37.4894 44.3806 36.7602 45.1889L35.2734 43.8546C35.9058 43.1535 36.6408 42.1411 37.4674 40.9436C37.7745 40.4987 38.0956 40.0261 38.4258 39.5401C38.9652 38.7464 39.5288 37.917 40.0951 37.1141C41.0151 35.8097 41.9831 34.5157 42.9636 33.4249Z" fill="#4B63A2"/>
<defs>
<linearGradient id="paint0_linear" x1="3.72194e-06" y1="29.9258" x2="1.98551" y2="19.0097" gradientUnits="userSpaceOnUse">
<stop offset="0.09375" stop-color="#A25BFC"/>
<stop offset="0.427083" stop-color="#5F6DF8"/>
<stop offset="1" stop-color="#1DA6E3"/>
</linearGradient>
</defs>
</svg>
