<svg width="63" height="62" viewBox="0 0 63 62" fill="none" xmlns="http://www.w3.org/2000/svg">
<path d="M12.8823 61V54.27C12.8823 51.38 14.8223 47.99 20.2823 46.57L31.3923 43.67H42.5023L53.6123 46.57C59.0723 48 61.0023 51.38 61.0023 54.27V61H12.8823Z" fill="#B5D2FF"/>
<path fill-rule="evenodd" clip-rule="evenodd" d="M31.2721 42.6899H42.6321L53.8621 45.6099C59.6921 47.1299 62.0021 50.8699 62.0021 54.2699V61.9999H11.9021V54.2699C11.9021 50.8699 14.2121 47.1299 20.0421 45.6099L31.2721 42.6899ZM31.5221 44.6899L20.5221 47.5499C15.4321 48.8699 13.8521 51.9299 13.8521 54.2999V59.9999H60.0021V54.2699C60.0021 51.8999 58.4321 48.8399 53.3321 47.5199L42.3321 44.6599L31.5221 44.6899Z" fill="#4B6097"/>
<path d="M32.1703 44.3199C31.9503 45.4899 32.7203 47.7199 37.1703 48.1099V48.1699H38.6103V48.1099C43.0803 47.7199 43.8503 45.4899 43.6103 44.3199V36.6099H32.1703V44.3199Z" fill="white"/>
<path fill-rule="evenodd" clip-rule="evenodd" d="M44.6403 36.8901C44.005 37.4306 43.337 37.9315 42.6403 38.3901V44.3901V44.4801C42.6666 44.724 42.635 44.9706 42.5481 45.1999C42.4613 45.4293 42.3215 45.6349 42.1403 45.8001C41.1189 46.6584 39.8243 47.123 38.4903 47.1101H37.9803H37.8003H37.2803C35.9463 47.123 34.6517 46.6584 33.6303 45.8001C33.4491 45.6349 33.3094 45.4293 33.2225 45.1999C33.1356 44.9706 33.104 44.724 33.1303 44.4801V44.3901V38.3901C32.4336 37.9315 31.7656 37.4306 31.1303 36.8901V44.2401C31.0618 44.7755 31.1162 45.3195 31.2895 45.8307C31.4628 46.3419 31.7503 46.8068 32.1303 47.1901C33.2304 48.2106 34.6364 48.8398 36.1303 48.9801L36.8503 49.0401L37.1103 49.1501H37.8303C38.0603 49.1501 37.9503 49.1501 38.1903 49.1501H38.8103L39.5303 49.0701C41.0243 48.9298 42.4302 48.3006 43.5303 47.2801C43.9103 46.8968 44.1979 46.4319 44.3711 45.9207C44.5444 45.4095 44.5989 44.8655 44.5303 44.3301L44.6403 36.8901Z" fill="#4B6097"/>
<path d="M38.2422 41.46H37.9122C36.7602 41.4542 35.6359 41.1061 34.6822 40.46L34.4222 40.32C25.8022 35.66 23.5222 27.32 23.5222 23.56C23.5222 23.04 23.5222 22.46 23.5222 21.84C23.4022 18.33 23.2522 13.52 26.2722 10.69C29.0022 8.11996 33.5422 7.20996 36.0022 6.89996V6.80996L36.9022 6.70996H37.9022H38.9022H39.7922V6.89996C42.2722 7.20996 46.7922 8.11996 49.5822 10.71C52.5822 13.54 52.4422 18.35 52.3322 21.86C52.3322 22.49 52.3322 23.06 52.3322 23.58C52.3322 27.34 50.0522 35.68 41.4322 40.34L40.9322 40.61C40.1401 41.1547 39.2035 41.4506 38.2422 41.46ZM37.9122 39.46H38.0022C38.6986 39.5154 39.3905 39.3085 39.9422 38.88L40.4722 38.59C48.2622 34.38 50.3222 26.94 50.3222 23.59C50.3222 23.05 50.3222 22.46 50.3222 21.83C50.4322 18.5 50.5622 14.39 48.2022 12.18C45.5722 9.68996 40.7522 8.99996 38.8022 8.79996L38.0022 8.72996H37.3922L37.0022 8.79996C35.0022 8.98996 30.2322 9.68996 27.5822 12.17C25.2222 14.38 25.3522 18.49 25.4622 21.79C25.4622 22.43 25.4622 23.04 25.4622 23.58C25.4622 26.93 27.5222 34.37 35.3122 38.58L35.6122 38.74C36.254 39.1843 37.0118 39.4311 37.7922 39.45L37.9122 39.46Z" fill="#4B6097"/>
<path d="M35.0023 12.21C38.1023 12.16 42.5423 12.09 45.3523 17.89C45.7223 18.67 46.0623 19.43 46.3523 20.18C47.6323 23.11 48.7423 25.66 51.6023 26.98C52.1423 25.98 52.0323 24.71 51.8623 22.61C51.7523 21.19 51.6023 19.39 51.6023 17.07C51.6023 11.29 49.8123 3.84998 40.8323 3.84998C39.3546 3.8618 37.885 4.07029 36.4623 4.46998C28.4623 2.35998 23.0923 8.79998 22.8023 15.47C22.7636 18.3979 23.2828 21.3064 24.3323 24.04C24.6476 24.9206 24.9114 25.8187 25.1223 26.73C25.5523 26.34 25.6123 24.49 25.6623 22.55C25.7423 20.05 25.8223 17.38 26.6623 17.42C29.3623 17.06 30.4923 15.42 31.5723 13.92C32.0014 13.2755 32.4902 12.6728 33.0323 12.12C33.686 12.1962 34.3443 12.2263 35.0023 12.21Z" fill="#FEEEB7"/>
<path d="M8.30222 41.75C6.34183 41.8724 4.50181 42.7374 3.15687 44.1689C1.81194 45.6005 1.06323 47.4908 1.06323 49.455C1.06323 51.4192 1.81194 53.3095 3.15687 54.7411C4.50181 56.1726 6.34183 57.0376 8.30222 57.16H30.3022C32.2933 57.1076 34.1823 56.2674 35.5547 54.8239C36.927 53.3803 37.6706 51.4512 37.6222 49.46V41.75H8.30222Z" fill="white"/>
<path fill-rule="evenodd" clip-rule="evenodd" d="M8.30218 42.73C6.59622 42.844 4.99735 43.6021 3.82937 44.8507C2.66139 46.0994 2.0116 47.7453 2.0116 49.455C2.0116 51.1648 2.66139 52.8106 3.82937 54.0593C4.99735 55.3079 6.59622 56.066 8.30218 56.18H30.3022C32.0325 56.1277 33.6713 55.3905 34.8583 54.1304C36.0453 52.8703 36.6833 51.1904 36.6322 49.46V42.73H8.30218ZM0.002181 49.46C-0.0488233 47.2062 0.796517 45.0243 2.35264 43.3932C3.90876 41.7621 6.04851 40.8151 8.30218 40.76H38.5522V49.46C38.6032 51.7128 37.7575 53.8937 36.2011 55.5232C34.6447 57.1527 32.505 58.0976 30.2522 58.15H8.30218C6.04941 58.0976 3.90965 57.1527 2.35325 55.5232C0.796853 53.8937 -0.0487991 51.7128 0.002181 49.46Z" fill="#4B6097"/>
<path d="M10.2421 51.2601C11.0982 51.2601 11.7921 50.5706 11.7921 49.7201C11.7921 48.8695 11.0982 48.1801 10.2421 48.1801C9.3861 48.1801 8.69214 48.8695 8.69214 49.7201C8.69214 50.5706 9.3861 51.2601 10.2421 51.2601Z" fill="#4B6097"/>
<path d="M19.2521 51.2601C20.1082 51.2601 20.8021 50.5706 20.8021 49.7201C20.8021 48.8695 20.1082 48.1801 19.2521 48.1801C18.3961 48.1801 17.7021 48.8695 17.7021 49.7201C17.7021 50.5706 18.3961 51.2601 19.2521 51.2601Z" fill="#4B6097"/>
<path d="M28.2141 51.2602C29.0701 51.2602 29.7641 50.5707 29.7641 49.7202C29.7641 48.8697 29.0701 48.1802 28.2141 48.1802C27.358 48.1802 26.6641 48.8697 26.6641 49.7202C26.6641 50.5707 27.358 51.2602 28.2141 51.2602Z" fill="#4B6097"/>
<path fill-rule="evenodd" clip-rule="evenodd" d="M53.3223 18.63V15C53.3554 13.0629 53.0066 11.1383 52.2957 9.33607C51.5849 7.53383 50.526 5.88928 49.1795 4.49634C47.833 3.10341 46.2253 1.98938 44.4482 1.21789C42.6711 0.446395 40.7594 0.0325536 38.8223 0L37.0023 0C34.1666 0.0251598 31.4007 0.881831 29.0472 2.46385C26.6937 4.04587 24.8562 6.28369 23.7623 8.9C22.6067 10.901 21.9515 13.1514 21.8523 15.46C21.8088 16.5456 21.859 17.633 22.0023 18.71C21.1983 18.9508 20.4971 19.4516 20.0084 20.1339C19.5198 20.8162 19.2714 21.6413 19.3023 22.48V26.33C19.2475 27.2945 19.5763 28.2416 20.217 28.9647C20.8576 29.6877 21.7582 30.1282 22.7223 30.19C24.0523 30.19 24.3523 29.32 24.4123 28.08L24.5323 28.64L25.8023 27.5C26.0825 27.2284 26.2772 26.8808 26.3623 26.5C26.4519 26.1354 26.5121 25.7642 26.5423 25.39C26.6223 24.6 26.6523 23.63 26.6823 22.67C26.6823 21.4 26.7523 20.17 26.8823 19.26C26.9176 18.9884 26.9779 18.7206 27.0623 18.46C30.0623 17.99 31.3723 16.12 32.4323 14.62C32.7349 14.148 33.069 13.697 33.4323 13.27C33.9023 13.27 34.4323 13.27 34.9123 13.27H35.0023C36.6649 13.1494 38.3353 13.3497 39.9223 13.86C40.9392 14.2791 41.8625 14.8963 42.6386 15.6757C43.4146 16.4552 44.0277 17.3812 44.4423 18.4C44.8123 19.16 45.1323 19.91 45.4423 20.65L45.4923 20.78C46.7323 23.61 47.9723 26.47 51.1823 27.95L51.3623 28.03C51.3709 28.2343 51.3909 28.4379 51.4223 28.64H51.1323L51.1923 30.54C51.3023 33.8 50.1023 35.1 49.4723 35.54C48.2695 36.3318 46.8517 36.7334 45.4123 36.69L41.5523 36.82C41.421 36.8239 41.2917 36.8537 41.1719 36.9076C41.0521 36.9615 40.944 37.0385 40.854 37.1341C40.7639 37.2298 40.6935 37.3422 40.6469 37.465C40.6003 37.5879 40.5783 37.7187 40.5823 37.85C40.5862 37.9813 40.616 38.1106 40.6699 38.2304C40.7238 38.3502 40.8007 38.4582 40.8964 38.5483C40.992 38.6384 41.1045 38.7087 41.2273 38.7554C41.3501 38.802 41.481 38.8239 41.6123 38.82L45.4723 38.7C47.3028 38.7235 49.0978 38.1937 50.6223 37.18C51.8423 36.31 53.2823 34.35 53.1623 30.51V30.27H53.2923C53.7979 30.2687 54.2982 30.1678 54.7649 29.9731C55.2315 29.7784 55.6551 29.4937 56.0117 29.1353C56.3683 28.7769 56.6508 28.3517 56.843 27.8841C57.0353 27.4165 57.1336 26.9156 57.1323 26.41V22.48C57.135 21.465 56.7357 20.4903 56.0217 19.7688C55.3078 19.0474 54.3372 18.6379 53.3223 18.63ZM37.9123 1.87C39.8386 1.86884 41.7412 2.2958 43.4823 3.12C42.6186 2.95579 41.7415 2.8721 40.8623 2.87C39.3869 2.87706 37.9184 3.07196 36.4923 3.45C35.1134 3.10762 33.6857 3.00612 32.2723 3.15C34.0347 2.31198 35.9608 1.87484 37.9123 1.87ZM51.0023 25.5C49.2423 24.28 48.3623 22.33 47.2523 19.78C46.9323 19.04 46.5923 18.26 46.2023 17.46C45.6815 16.2146 44.9182 15.0851 43.9568 14.1375C42.9954 13.1898 41.8551 12.4428 40.6023 11.94C38.7993 11.3419 36.8979 11.0974 35.0023 11.22C34.4127 11.2528 33.8218 11.2528 33.2323 11.22L32.7823 11.16L32.4423 11.48C31.8621 12.0651 31.3397 12.7047 30.8823 13.39C29.8223 14.89 28.8823 16.15 26.7023 16.47C26.4063 16.494 26.123 16.6004 25.8844 16.7771C25.6458 16.9539 25.4615 17.1939 25.3523 17.47C25.1544 17.9353 25.0263 18.4273 24.9723 18.93C24.836 19.9482 24.7559 20.973 24.7323 22C24.6223 21.62 24.5223 21.23 24.4223 20.83C24.4067 20.5449 24.3733 20.261 24.3223 19.98V15.98C24.3184 13.4503 24.988 10.9653 26.2623 8.78C26.6154 8.28707 27.0102 7.82537 27.4423 7.4C28.6064 6.32672 30.0315 5.57728 31.5755 5.22637C33.1196 4.87545 34.7286 4.93532 36.2423 5.4L36.4923 5.46L36.7323 5.4C38.0777 5.02731 39.4662 4.83232 40.8623 4.82C45.0223 4.82 47.3923 6.51 48.7723 8.82C50.1177 11.3625 50.7663 14.2157 50.6523 17.09C50.6523 19.45 50.8023 21.28 50.9123 22.7C50.9863 23.5245 51.0163 24.3523 51.0023 25.18C51.0023 25.3 51.0023 25.4 51.0023 25.5Z" fill="#4B6097"/>
<path fill-rule="evenodd" clip-rule="evenodd" d="M41.0006 32.79C40.8861 32.5568 40.6853 32.3774 40.4408 32.2897C40.1963 32.202 39.9273 32.2128 39.6906 32.32C39.029 32.7272 38.2901 32.9928 37.5206 33.1C36.7727 32.9999 36.0559 32.7371 35.4206 32.33C35.1958 32.2644 34.9551 32.2798 34.7405 32.3735C34.5259 32.4672 34.3509 32.6333 34.2462 32.8428C34.1415 33.0522 34.1136 33.2918 34.1674 33.5197C34.2212 33.7477 34.3533 33.9495 34.5406 34.09C35.4493 34.6521 36.4765 34.9945 37.5406 35.09C38.6024 34.9831 39.6271 34.6415 40.5406 34.09C40.7695 33.9738 40.9449 33.774 41.0305 33.532C41.1162 33.29 41.1055 33.0243 41.0006 32.79Z" fill="#4B6097"/>
<path fill-rule="evenodd" clip-rule="evenodd" d="M31.8837 21.6299C31.5772 21.6319 31.2781 21.7247 31.0243 21.8967C30.7705 22.0687 30.5734 22.312 30.4579 22.596C30.3425 22.88 30.3138 23.1918 30.3755 23.4921C30.4373 23.7924 30.5867 24.0676 30.8048 24.2829C31.023 24.4983 31.3001 24.6442 31.6012 24.702C31.9022 24.7599 32.2137 24.7272 32.4961 24.608C32.7786 24.4889 33.0194 24.2887 33.188 24.0327C33.3567 23.7767 33.4457 23.4765 33.4437 23.1699C33.4424 22.9664 33.401 22.7651 33.3219 22.5775C33.2428 22.39 33.1275 22.2198 32.9827 22.0768C32.8378 21.9338 32.6662 21.8207 32.4776 21.7441C32.2891 21.6674 32.0873 21.6286 31.8837 21.6299Z" fill="#4B6097"/>
<path fill-rule="evenodd" clip-rule="evenodd" d="M45.0922 23.17C45.0922 22.8634 45.0013 22.5638 44.831 22.3089C44.6606 22.054 44.4186 21.8553 44.1353 21.738C43.8521 21.6207 43.5405 21.59 43.2398 21.6498C42.9391 21.7096 42.6629 21.8572 42.4462 22.074C42.2294 22.2908 42.0818 22.5669 42.022 22.8676C41.9622 23.1683 41.9929 23.4799 42.1102 23.7632C42.2275 24.0464 42.4262 24.2885 42.6811 24.4588C42.936 24.6291 43.2356 24.72 43.5422 24.72C43.7461 24.7213 43.9483 24.6821 44.1369 24.6047C44.3256 24.5273 44.497 24.4132 44.6412 24.269C44.7854 24.1248 44.8995 23.9534 44.9769 23.7647C45.0543 23.5761 45.0935 23.3739 45.0922 23.17Z" fill="#4B6097"/>
</svg>
