<svg version="1.1" xmlns="http://www.w3.org/2000/svg" width="1664" height="1024" viewBox="0 0 1664 1024">
<path fill="#ff5f00" d="M1038.336 109.437h-442.024v804.969h442.024v-804.969z"></path>
<path fill="#eb001b" d="M624.371 512.164c-0.081-77.536 17.248-154.074 50.675-223.818 33.434-69.745 82.080-130.867 142.272-178.739-74.528-59.35-164.026-96.256-258.269-106.5-94.244-10.244-189.432 6.586-274.684 48.568s-157.128 107.421-207.414 188.839c-50.286 81.418-76.952 175.529-76.952 271.578s26.667 190.159 76.952 271.58c50.286 81.414 122.162 146.854 207.414 188.838 85.251 41.978 180.439 58.81 274.684 48.57 94.243-10.246 183.741-47.155 258.269-106.502-60.173-47.859-108.813-108.96-142.24-178.675s-50.767-146.228-50.707-223.74z"></path>
<path fill="#f79e1b" d="M1634.707 512.036c-0.006 96.056-26.675 190.172-76.973 271.593-50.291 81.421-122.182 146.861-207.443 188.838-85.261 41.971-180.461 58.79-274.707 48.531-94.253-10.253-183.75-47.181-258.272-106.547 60.147-47.898 108.774-109.018 142.208-178.739 33.44-69.722 50.816-146.228 50.816-223.747s-17.376-154.026-50.816-223.748c-33.434-69.722-82.061-130.838-142.208-178.738 74.522-59.368 164.019-96.292 258.272-106.551 94.246-10.259 189.446 6.561 274.707 48.537s157.152 107.414 207.443 188.835c50.298 81.421 76.966 175.538 76.973 271.594v0.142z"></path>
<path fill="#f79e1b" d="M1586.477 829.158v-16.493h6.598v-3.418h-16.698v3.418h7.155v16.493h2.944zM1618.893 829.158v-19.91h-5.050l-5.894 14.221-5.894-14.221h-4.493v19.91h3.648v-14.931l5.478 12.941h3.789l5.472-12.941v15.072l2.944-0.141z"></path>
</svg>
