<!-- Generated by IcoMoon.io -->
<svg version="1.1" xmlns="http://www.w3.org/2000/svg" width="3165" height="1024" viewBox="0 0 3165 1024">
<title></title>
<g id="icomoon-ignore">
</g>
<path fill="#00b4e6" d="M2840.157 0h-604.43c32.498 213.113 227.477 412.477 441.949 412.477h480.945c6.498-20.624 6.498-48.122 6.498-68.747 0-192.489-142.978-343.731-324.962-343.731z"></path>
<path fill="#4db45f" d="M2287.635 446.863v515.613h292.464v-274.992h259.975c142.978 0 266.473-103.122 305.469-240.62h-857.907z"></path>
<path fill="#4db45f" d="M1247.912 0v962.513h259.966c0 0 64.996 0 97.494-68.752 175.476-371.255 227.468-481.256 227.468-481.256h32.498v550.008h292.473v-962.513h-259.975c0 0-64.996 6.875-97.485 68.751-149.485 316.254-227.477 481.256-227.477 481.256h-32.498v-550.007h-292.464z"></path>
<path fill="#4db45f" d="M12.909 962.513v-962.513h292.465c0 0 84.49 0 129.985 137.502 116.985 364.379 129.985 412.505 129.985 412.505s25.997-89.377 129.984-412.505c45.495-137.502 129.985-137.502 129.985-137.502h292.467v962.513h-292.467v-515.632h-32.496l-162.481 515.632h-129.984l-162.481-515.632h-32.496v515.632h-292.465z"></path>
</svg>
