<svg version="1.1" xmlns="http://www.w3.org/2000/svg" width="3200" height="1024" viewBox="0 0 3200 1024">
<path fill="#3488cf" d="M1368.115 1006.694h-257.427l160.858-988.976h257.434l-160.864 988.976z"></path>
<path fill="#3488cf" d="M893.99 17.719l-245.523 680.214-29.102-146.571-86.516-445.54c0 0-10.582-88.103-122.232-88.103h-405.855l-4.762 16.668c95.005 23.856 185.825 62.039 269.335 113.237l223.828 859.071h268.276l409.562-988.976h-277.011z"></path>
<path fill="#3488cf" d="M2919.315 1006.694h236.525l-206.099-988.972h-207.162c-25.075-1.927-50.118 4.191-71.482 17.466-21.357 13.274-37.933 33.013-47.315 56.35l-384.16 915.156h268.544l52.915-146.835h328.070l30.163 146.835zM2635.955 656.928l135.462-370.399 75.93 370.399h-211.392z"></path>
<path fill="#3488cf" d="M2259.693 255.578l36.774-211.658c-74.33-26.897-152.48-41.724-231.501-43.919-127.789 0-431.251 55.825-431.251 327.541 0 255.578 356.115 258.752 356.115 392.888 0 134.144-319.341 110.067-424.902 26.458l-38.368 220.922c92.070 38.682 191.181 57.779 291.034 56.090 175.674 0 440.774-91.014 440.774-338.656 0-257.163-359.29-281.239-359.29-392.889s250.554-97.627 360.614-36.775z"></path>
<path fill="#f7a823" d="M619.365 551.627l-86.516-445.805c0 0-10.582-88.103-122.232-88.103h-405.855l-4.762 16.668c139.772 35.636 270.187 101.069 382.308 191.815 106.429 85.581 188.234 197.88 237.057 325.425z"></path>
</svg>
